<svg width="40" height="40" viewBox="0 0 40 40" fill="none" xmlns="http://www.w3.org/2000/svg">
<path d="M6.66683 3.33301V11.6663H15.0002L12.396 9.06217C14.553 7.55865 17.1635 6.66634 20.0002 6.66634C27.3846 6.66634 33.3335 12.6152 33.3335 19.9997H36.6668C36.6668 10.8141 29.1857 3.33301 20.0002 3.33301C16.2555 3.33301 12.7862 4.57414 10.0002 6.66634L6.66683 3.33301ZM24.0041 12.5843L13.9976 25.9144L15.9963 27.415L26.0028 14.085L24.0041 12.5843ZM15.8335 13.333C14.4535 13.333 13.3335 14.453 13.3335 15.833C13.3335 17.213 14.4535 18.333 15.8335 18.333C17.2135 18.333 18.3335 17.213 18.3335 15.833C18.3335 14.453 17.2135 13.333 15.8335 13.333ZM3.3335 19.9997C3.3335 29.1852 10.8146 36.6663 20.0002 36.6663C23.7448 36.6663 27.2141 35.4252 30.0002 33.333L33.3335 36.6663V28.333H25.0002L27.6043 30.9372C25.4473 32.4407 22.8369 33.333 20.0002 33.333C12.6157 33.333 6.66683 27.3841 6.66683 19.9997H3.3335ZM24.1668 21.6663C22.7868 21.6663 21.6668 22.7863 21.6668 24.1663C21.6668 25.5463 22.7868 26.6663 24.1668 26.6663C25.5468 26.6663 26.6668 25.5463 26.6668 24.1663C26.6668 22.7863 25.5468 21.6663 24.1668 21.6663Z" fill="white"/>
</svg>
