<svg width="24" height="24" viewBox="0 0 24 24" fill="none" xmlns="http://www.w3.org/2000/svg">
<path d="M14.1803 11.9995L23.5495 2.63133C24.1516 2.02923 24.1516 1.05368 23.5495 0.451578C22.9474 -0.150526 21.9718 -0.150526 21.3697 0.451578L12.0005 9.81971L2.63133 0.451578C2.02923 -0.150526 1.05368 -0.150526 0.451578 0.451578C-0.150526 1.05368 -0.150526 2.02923 0.451578 2.63133L9.82078 11.9995L0.451578 21.3687C-0.150526 21.9708 -0.150526 22.9463 0.451578 23.5484C1.05368 24.1505 2.02923 24.1505 2.63133 23.5484L12.0005 14.1792L21.3697 23.5484C21.6711 23.8497 22.0653 23.9999 22.4596 23.9999C22.8539 23.9999 23.2482 23.8492 23.5495 23.5484C24.1516 22.9463 24.1516 21.9708 23.5495 21.3687L14.1803 11.9995Z" fill="#0DE6BE"/>
</svg>
